<?xml version="1.0" encoding="UTF-8" standalone="no"?>
<!DOCTYPE svg PUBLIC "-//W3C//DTD SVG 1.1//EN"
 "http://www.w3.org/Graphics/SVG/1.1/DTD/svg11.dtd">
<!-- Generated by graphviz version 2.40.1 (20161225.0304)
 -->
<!-- Pages: 1 -->
<svg width="548pt" height="821pt"
 viewBox="0.00 0.00 548.00 820.70" xmlns="http://www.w3.org/2000/svg" xmlns:xlink="http://www.w3.org/1999/xlink">
<g id="graph0" class="graph" transform="scale(1 1) rotate(0) translate(4 816.7006)">
<polygon fill="#ffffff" stroke="transparent" points="-4,4 -4,-816.7006 544,-816.7006 544,4 -4,4"/>
<g id="cluster_uk_top" class="cluster">
<title>cluster_uk</title>
<polygon fill="none" stroke="#000000" stroke-width=".5" points="165,-180.2 165,-486.5371 321,-486.5371 321,-180.2 165,-180.2"/>
<text text-anchor="start" x="177.5" y="-208.6" font-family="Times,serif" font-size="12.00" fill="#000000">uk</text>
<text text-anchor="start" x="177.5" y="-191.2" font-family="Times,serif" font-size="10.00" fill="#000000">(2022&#45;08&#45;08 20:25:20 UTC)</text>
</g>
<g id="cluster_theeu.uk_top" class="cluster">
<title>cluster_theeu.uk</title>
<polygon fill="none" stroke="#000000" stroke-width=".5" points="8,-8 8,-157.2 532,-157.2 532,-8 8,-8"/>
<text text-anchor="start" x="20.5" y="-36.4" font-family="Times,serif" font-size="12.00" fill="#000000">theeu.uk</text>
<text text-anchor="start" x="20.5" y="-19" font-family="Times,serif" font-size="10.00" fill="#000000">(2022&#45;08&#45;08 22:59:06 UTC)</text>
</g>
<g id="cluster_._top" class="cluster">
<title>cluster_.</title>
<polygon fill="none" stroke="#000000" stroke-width=".5" points="181,-509.5371 181,-804.7006 345,-804.7006 345,-509.5371 181,-509.5371"/>
<text text-anchor="start" x="193.5" y="-537.9371" font-family="Times,serif" font-size="12.00" fill="#000000">.</text>
<text text-anchor="start" x="193.5" y="-520.5371" font-family="Times,serif" font-size="10.00" fill="#000000">(2022&#45;08&#45;08 19:56:08 UTC)</text>
</g>
<!-- cluster_uk_top -->
<!-- cluster_._bottom -->
<!-- cluster_uk_top&#45;&gt;cluster_._bottom -->
<g id="del&#45;uk|." class="edge">
<title>cluster_uk_top&#45;&gt;cluster_._bottom</title>
<path fill="none" stroke="#0a879a" stroke-width="5" d="M211.1086,-487.5564C207.9463,-493.8103 204.2472,-501.9252 202,-509.5371"/>
<polygon fill="#0a879a" stroke="#0a879a" stroke-width="5" points="208.688,-496.9365 212.0047,-486.5371 202.1161,-491.1592 208.688,-496.9365"/>
</g>
<!-- cluster_uk_bottom -->
<!-- NSEC3&#45;0|theeu.uk|DS -->
<g id="NSEC3&#45;0|theeu.uk|DS" class="node">
<title>NSEC3&#45;0|theeu.uk|DS</title>
<polygon fill="#d3d3d3" stroke="transparent" points="257,-263.8 257,-291.8 303,-291.8 303,-263.8 257,-263.8"/>
<polygon fill="none" stroke="#0a879a" stroke-width="2" points="256,-283.8 256,-292.8 280,-292.8 280,-283.8 256,-283.8"/>
<text text-anchor="start" x="267" y="-287" font-family="Times,serif" font-size="6.00" fill="#000000"> </text>
<polygon fill="none" stroke="#0a879a" stroke-width="2" points="280,-283.8 280,-292.8 304,-292.8 304,-283.8 280,-283.8"/>
<text text-anchor="start" x="291" y="-287" font-family="Times,serif" font-size="6.00" fill="#000000"> </text>
<polygon fill="none" stroke="#0a879a" stroke-width="2" points="256,-262.8 256,-283.8 304,-283.8 304,-262.8 256,-262.8"/>
<text text-anchor="start" x="259" y="-270.2" font-family="Helvetica,sans-Serif" font-size="12.00" fill="#000000">NSEC3</text>
</g>
<!-- cluster_uk_bottom&#45;&gt;NSEC3&#45;0|theeu.uk|DS -->
<!-- RRset&#45;10|uk|SOA -->
<g id="RRset&#45;10|uk|SOA" class="node">
<title>RRset&#45;10|uk|SOA</title>
<path fill="#ffffff" stroke="#0a879a" stroke-width="1.5" d="M219,-295.8C219,-295.8 185,-295.8 185,-295.8 179,-295.8 173,-289.8 173,-283.8 173,-283.8 173,-271.8 173,-271.8 173,-265.8 179,-259.8 185,-259.8 185,-259.8 219,-259.8 219,-259.8 225,-259.8 231,-265.8 231,-271.8 231,-271.8 231,-283.8 231,-283.8 231,-289.8 225,-295.8 219,-295.8"/>
<text text-anchor="start" x="181" y="-274.7" font-family="Helvetica,sans-Serif" font-size="12.00" fill="#000000">uk/SOA</text>
</g>
<!-- cluster_uk_bottom&#45;&gt;RRset&#45;10|uk|SOA -->
<!-- DNSKEY&#45;0|uk|8|43056 -->
<g id="DNSKEY&#45;0|uk|8|43056" class="node">
<title>DNSKEY&#45;0|uk|8|43056</title>
<ellipse fill="#ffffff" stroke="#0a879a" stroke-width="1.5" cx="243" cy="-346.0843" rx="60.623" ry="28.0702"/>
<text text-anchor="start" x="217" y="-353.4843" font-family="Helvetica,sans-Serif" font-size="12.00" fill="#000000">DNSKEY</text>
<text text-anchor="start" x="208" y="-343.0843" font-family="Times,serif" font-size="10.00" fill="#000000">alg=8, id=43056</text>
<text text-anchor="start" x="223.5" y="-333.0843" font-family="Times,serif" font-size="10.00" fill="#000000">1024 bits</text>
</g>
<!-- DNSKEY&#45;1|uk|8|43876 -->
<g id="DNSKEY&#45;1|uk|8|43876" class="node">
<title>DNSKEY&#45;1|uk|8|43876</title>
<ellipse fill="#d3d3d3" stroke="#0a879a" stroke-width="1.5" cx="234" cy="-424.6528" rx="60.623" ry="28.0702"/>
<text text-anchor="start" x="208" y="-432.0528" font-family="Helvetica,sans-Serif" font-size="12.00" fill="#000000">DNSKEY</text>
<text text-anchor="start" x="199" y="-421.6528" font-family="Times,serif" font-size="10.00" fill="#000000">alg=8, id=43876</text>
<text text-anchor="start" x="214.5" y="-411.6528" font-family="Times,serif" font-size="10.00" fill="#000000">2048 bits</text>
</g>
<!-- DNSKEY&#45;0|uk|8|43056&#45;&gt;DNSKEY&#45;1|uk|8|43876 -->
<g id="RRSIG&#45;DNSKEY&#45;0|uk|8|43056|DNSKEY&#45;1|uk|8|43876|0a879a|solid" class="edge">
<title>DNSKEY&#45;0|uk|8|43056&#45;&gt;DNSKEY&#45;1|uk|8|43876</title>
<path fill="none" stroke="#0a879a" stroke-width="1.5" d="M238.5768,-384.6983C238.1277,-388.6185 237.6776,-392.5476 237.2444,-396.3294"/>
<polygon fill="#0a879a" stroke="#0a879a" stroke-width="1.5" points="242.0899,-384.7827 239.7508,-374.4493 235.1354,-383.986 242.0899,-384.7827"/>
</g>
<!-- DNSKEY&#45;1|uk|8|43876&#45;&gt;cluster_uk_top -->
<!-- DNSKEY&#45;1|uk|8|43876&#45;&gt;DNSKEY&#45;1|uk|8|43876 -->
<g id="RRSIG&#45;DNSKEY&#45;1|uk|8|43876|DNSKEY&#45;1|uk|8|43876|0a879a|solid" class="edge">
<title>DNSKEY&#45;1|uk|8|43876&#45;&gt;DNSKEY&#45;1|uk|8|43876</title>
<path fill="none" stroke="#0a879a" stroke-width="1.5" d="M301.3958,-416.6041C308.3578,-418.1851 312.8112,-420.868 312.8112,-424.6528 312.8112,-430.0356 303.8032,-433.1896 291.382,-434.1148"/>
<polygon fill="#0a879a" stroke="#0a879a" stroke-width="1.5" points="301.773,-413.1228 291.382,-415.1908 300.7947,-420.0541 301.773,-413.1228"/>
</g>
<!-- DS&#45;0|uk|8|43876|2 -->
<g id="DS&#45;0|uk|8|43876|2" class="node">
<title>DS&#45;0|uk|8|43876|2</title>
<ellipse fill="#ffffff" stroke="#0a879a" stroke-width="1.5" cx="259" cy="-584.7503" rx="48.1667" ry="21.4286"/>
<text text-anchor="start" x="250" y="-587.1503" font-family="Helvetica,sans-Serif" font-size="12.00" fill="#000000">DS</text>
<text text-anchor="start" x="233" y="-576.7503" font-family="Times,serif" font-size="10.00" fill="#000000">digest alg=2</text>
</g>
<!-- DNSKEY&#45;1|uk|8|43876&#45;&gt;DS&#45;0|uk|8|43876|2 -->
<g id="digest&#45;DNSKEY&#45;1|uk|8|43876|DS&#45;0|uk|8|43876|2|0a879a|solid" class="edge">
<title>DNSKEY&#45;1|uk|8|43876&#45;&gt;DS&#45;0|uk|8|43876|2</title>
<path fill="none" stroke="#0a879a" stroke-width="1.5" d="M239.9998,-463.0751C244.9115,-494.5287 251.6782,-537.8622 255.6705,-563.4285"/>
<polygon fill="#0a879a" stroke="#0a879a" stroke-width="1.5" points="243.413,-462.2467 238.412,-452.9065 236.4968,-463.3268 243.413,-462.2467"/>
</g>
<!-- NSEC3&#45;0|theeu.uk|DS&#45;&gt;DNSKEY&#45;0|uk|8|43056 -->
<g id="RRSIG&#45;NSEC3&#45;0|theeu.uk|DS|DNSKEY&#45;0|uk|8|43056|0a879a|solid|vlbhouc0r5l2gpq7sa0bruful5n1d46i.uk." class="edge">
<title>NSEC3&#45;0|theeu.uk|DS:vlbhouc0r5l2gpq7sa0bruful5n1d46i.uk.&#45;&gt;DNSKEY&#45;0|uk|8|43056</title>
<path fill="none" stroke="#0a879a" stroke-width="1.5" d="M266.8215,-303.9181C265.6546,-309.1361 263.7149,-314.2362 261.4315,-318.9842"/>
<polygon fill="#0a879a" stroke="#0a879a" stroke-width="1.5" points="270.3195,-304.1378 268,-293.8 263.3665,-303.3279 270.3195,-304.1378"/>
</g>
<!-- NSEC3&#45;0|theeu.uk|DS&#45;&gt;DNSKEY&#45;0|uk|8|43056 -->
<g id="RRSIG&#45;NSEC3&#45;0|theeu.uk|DS|DNSKEY&#45;0|uk|8|43056|0a879a|solid|u1fmklfv3rdcnamdc64sekgcdp05bbiu.uk." class="edge">
<title>NSEC3&#45;0|theeu.uk|DS:u1fmklfv3rdcnamdc64sekgcdp05bbiu.uk.&#45;&gt;DNSKEY&#45;0|uk|8|43056</title>
<path fill="none" stroke="#0a879a" stroke-width="1.5" d="M290.3557,-303.8714C288.0393,-310.9366 283.4894,-317.2772 278.0896,-322.7659"/>
<polygon fill="#0a879a" stroke="#0a879a" stroke-width="1.5" points="293.8428,-304.2333 292,-293.8 286.9343,-303.1053 293.8428,-304.2333"/>
</g>
<!-- RRset&#45;10|uk|SOA&#45;&gt;DNSKEY&#45;0|uk|8|43056 -->
<g id="RRSIG&#45;RRset&#45;10|uk|SOA|DNSKEY&#45;0|uk|8|43056|0a879a|solid" class="edge">
<title>RRset&#45;10|uk|SOA&#45;&gt;DNSKEY&#45;0|uk|8|43056</title>
<path fill="none" stroke="#0a879a" stroke-width="1.5" d="M218.3458,-305.0235C221.0569,-309.5387 223.8692,-314.2225 226.5821,-318.7407"/>
<polygon fill="#0a879a" stroke="#0a879a" stroke-width="1.5" points="221.1356,-302.8705 212.9872,-296.0989 215.1343,-306.4739 221.1356,-302.8705"/>
</g>
<!-- cluster_theeu.uk_top -->
<!-- cluster_theeu.uk_top&#45;&gt;cluster_uk_bottom -->
<g id="del&#45;theeu.uk|uk" class="edge">
<title>cluster_theeu.uk_top&#45;&gt;cluster_uk_bottom</title>
<path fill="none" stroke="#000000" stroke-width="5" d="M258.481,-159.1465C257.2473,-164.8994 255.6631,-172.287 253.966,-180.2005"/>
<polygon fill="#000000" stroke="#000000" stroke-width="5" points="258.3987,-168.0487 259.6032,-157.2 250.8181,-163.6783 258.3987,-168.0487"/>
</g>
<!-- cluster_theeu.uk_top&#45;&gt;NSEC3&#45;0|theeu.uk|DS -->
<g id="NSEC3C&#45;cluster_theeu.uk_top|NSEC3&#45;0|theeu.uk|DS" class="edge">
<title>cluster_theeu.uk_top&#45;&gt;NSEC3&#45;0|theeu.uk|DS</title>
<path fill="none" stroke="#0a879a" stroke-width="1.5" d="M263.7752,-159.7184C264.554,-163.4004 265.3615,-167.4541 266,-171.2 271.2691,-202.1128 275.6518,-238.3613 278.0423,-259.6294"/>
<polygon fill="#0a879a" stroke="#0a879a" stroke-width="1.5" points="270.1054,-164.6029 262.5259,-157.2 263.8346,-167.7138 270.1054,-164.6029"/>
</g>
<!-- cluster_theeu.uk_bottom -->
<!-- RRset&#45;11|theeu.uk|TXT -->
<g id="RRset&#45;11|theeu.uk|TXT" class="node">
<title>RRset&#45;11|theeu.uk|TXT</title>
<path fill="#ffffff" stroke="#000000" stroke-width="1.5" d="M92.5,-123.6C92.5,-123.6 27.5,-123.6 27.5,-123.6 21.5,-123.6 15.5,-117.6 15.5,-111.6 15.5,-111.6 15.5,-99.6 15.5,-99.6 15.5,-93.6 21.5,-87.6 27.5,-87.6 27.5,-87.6 92.5,-87.6 92.5,-87.6 98.5,-87.6 104.5,-93.6 104.5,-99.6 104.5,-99.6 104.5,-111.6 104.5,-111.6 104.5,-117.6 98.5,-123.6 92.5,-123.6"/>
<text text-anchor="start" x="23.5" y="-102.5" font-family="Helvetica,sans-Serif" font-size="12.00" fill="#000000">theeu.uk/TXT</text>
</g>
<!-- cluster_theeu.uk_bottom&#45;&gt;RRset&#45;11|theeu.uk|TXT -->
<!-- RRset&#45;12|theeu.uk|NS -->
<g id="RRset&#45;12|theeu.uk|NS" class="node">
<title>RRset&#45;12|theeu.uk|NS</title>
<path fill="#ffffff" stroke="#000000" stroke-width="1.5" d="M193.5,-123.6C193.5,-123.6 134.5,-123.6 134.5,-123.6 128.5,-123.6 122.5,-117.6 122.5,-111.6 122.5,-111.6 122.5,-99.6 122.5,-99.6 122.5,-93.6 128.5,-87.6 134.5,-87.6 134.5,-87.6 193.5,-87.6 193.5,-87.6 199.5,-87.6 205.5,-93.6 205.5,-99.6 205.5,-99.6 205.5,-111.6 205.5,-111.6 205.5,-117.6 199.5,-123.6 193.5,-123.6"/>
<text text-anchor="start" x="130.5" y="-102.5" font-family="Helvetica,sans-Serif" font-size="12.00" fill="#000000">theeu.uk/NS</text>
</g>
<!-- cluster_theeu.uk_bottom&#45;&gt;RRset&#45;12|theeu.uk|NS -->
<!-- RRset&#45;13|theeu.uk|A -->
<g id="RRset&#45;13|theeu.uk|A" class="node">
<title>RRset&#45;13|theeu.uk|A</title>
<path fill="#ffffff" stroke="#000000" stroke-width="1.5" d="M286,-123.6C286,-123.6 236,-123.6 236,-123.6 230,-123.6 224,-117.6 224,-111.6 224,-111.6 224,-99.6 224,-99.6 224,-93.6 230,-87.6 236,-87.6 236,-87.6 286,-87.6 286,-87.6 292,-87.6 298,-93.6 298,-99.6 298,-99.6 298,-111.6 298,-111.6 298,-117.6 292,-123.6 286,-123.6"/>
<text text-anchor="start" x="232" y="-102.5" font-family="Helvetica,sans-Serif" font-size="12.00" fill="#000000">theeu.uk/A</text>
</g>
<!-- cluster_theeu.uk_bottom&#45;&gt;RRset&#45;13|theeu.uk|A -->
<!-- RRset&#45;14|theeu.uk|AAAA -->
<g id="RRset&#45;14|theeu.uk|AAAA" class="node">
<title>RRset&#45;14|theeu.uk|AAAA</title>
<path fill="#ffffff" stroke="#000000" stroke-width="1.5" d="M402,-123.6C402,-123.6 328,-123.6 328,-123.6 322,-123.6 316,-117.6 316,-111.6 316,-111.6 316,-99.6 316,-99.6 316,-93.6 322,-87.6 328,-87.6 328,-87.6 402,-87.6 402,-87.6 408,-87.6 414,-93.6 414,-99.6 414,-99.6 414,-111.6 414,-111.6 414,-117.6 408,-123.6 402,-123.6"/>
<text text-anchor="start" x="324" y="-102.5" font-family="Helvetica,sans-Serif" font-size="12.00" fill="#000000">theeu.uk/AAAA</text>
</g>
<!-- cluster_theeu.uk_bottom&#45;&gt;RRset&#45;14|theeu.uk|AAAA -->
<!-- RRset&#45;15|theeu.uk|SOA -->
<g id="RRset&#45;15|theeu.uk|SOA" class="node">
<title>RRset&#45;15|theeu.uk|SOA</title>
<path fill="#ffffff" stroke="#000000" stroke-width="1.5" d="M511.5,-123.6C511.5,-123.6 444.5,-123.6 444.5,-123.6 438.5,-123.6 432.5,-117.6 432.5,-111.6 432.5,-111.6 432.5,-99.6 432.5,-99.6 432.5,-93.6 438.5,-87.6 444.5,-87.6 444.5,-87.6 511.5,-87.6 511.5,-87.6 517.5,-87.6 523.5,-93.6 523.5,-99.6 523.5,-99.6 523.5,-111.6 523.5,-111.6 523.5,-117.6 517.5,-123.6 511.5,-123.6"/>
<text text-anchor="start" x="440.5" y="-102.5" font-family="Helvetica,sans-Serif" font-size="12.00" fill="#000000">theeu.uk/SOA</text>
</g>
<!-- cluster_theeu.uk_bottom&#45;&gt;RRset&#45;15|theeu.uk|SOA -->
<!-- RRset&#45;11|theeu.uk|TXT&#45;&gt;cluster_theeu.uk_top -->
<!-- RRset&#45;12|theeu.uk|NS&#45;&gt;cluster_theeu.uk_top -->
<!-- RRset&#45;13|theeu.uk|A&#45;&gt;cluster_theeu.uk_top -->
<!-- RRset&#45;14|theeu.uk|AAAA&#45;&gt;cluster_theeu.uk_top -->
<!-- RRset&#45;15|theeu.uk|SOA&#45;&gt;cluster_theeu.uk_top -->
<!-- cluster_._top -->
<!-- DNSKEY&#45;2|.|8|20326 -->
<g id="DNSKEY&#45;2|.|8|20326" class="node">
<title>DNSKEY&#45;2|.|8|20326</title>
<ellipse fill="#d3d3d3" stroke="#0a879a" stroke-width="1.5" cx="254" cy="-738.8163" rx="60.6345" ry="28.0965"/>
<ellipse fill="none" stroke="#0a879a" stroke-width="1.5" cx="254" cy="-738.8163" rx="64.6229" ry="32.07"/>
<text text-anchor="start" x="228" y="-746.2163" font-family="Helvetica,sans-Serif" font-size="12.00" fill="#000000">DNSKEY</text>
<text text-anchor="start" x="219" y="-735.8163" font-family="Times,serif" font-size="10.00" fill="#000000">alg=8, id=20326</text>
<text text-anchor="start" x="234.5" y="-725.8163" font-family="Times,serif" font-size="10.00" fill="#000000">2048 bits</text>
</g>
<!-- DNSKEY&#45;2|.|8|20326&#45;&gt;cluster_._top -->
<!-- DNSKEY&#45;2|.|8|20326&#45;&gt;DNSKEY&#45;2|.|8|20326 -->
<g id="RRSIG&#45;DNSKEY&#45;2|.|8|20326|DNSKEY&#45;2|.|8|20326|0a879a|solid" class="edge">
<title>DNSKEY&#45;2|.|8|20326&#45;&gt;DNSKEY&#45;2|.|8|20326</title>
<path fill="none" stroke="#0a879a" stroke-width="1.5" d="M325.6332,-730.3463C332.4782,-732.0709 336.8112,-734.8942 336.8112,-738.8163 336.8112,-744.3944 328.0469,-747.75 315.7563,-748.8831"/>
<polygon fill="#0a879a" stroke="#0a879a" stroke-width="1.5" points="326.1867,-726.8904 315.7563,-728.7495 325.0695,-733.8007 326.1867,-726.8904"/>
</g>
<!-- DNSKEY&#45;3|.|8|20826 -->
<g id="DNSKEY&#45;3|.|8|20826" class="node">
<title>DNSKEY&#45;3|.|8|20826</title>
<ellipse fill="#ffffff" stroke="#0a879a" stroke-width="1.5" cx="256" cy="-656.2478" rx="60.623" ry="28.0702"/>
<text text-anchor="start" x="230" y="-663.6478" font-family="Helvetica,sans-Serif" font-size="12.00" fill="#000000">DNSKEY</text>
<text text-anchor="start" x="221" y="-653.2478" font-family="Times,serif" font-size="10.00" fill="#000000">alg=8, id=20826</text>
<text text-anchor="start" x="236.5" y="-643.2478" font-family="Times,serif" font-size="10.00" fill="#000000">2048 bits</text>
</g>
<!-- DNSKEY&#45;3|.|8|20826&#45;&gt;DNSKEY&#45;2|.|8|20326 -->
<g id="RRSIG&#45;DNSKEY&#45;3|.|8|20826|DNSKEY&#45;2|.|8|20326|0a879a|solid" class="edge">
<title>DNSKEY&#45;3|.|8|20826&#45;&gt;DNSKEY&#45;2|.|8|20326</title>
<path fill="none" stroke="#0a879a" stroke-width="1.5" d="M255.0669,-694.7694C254.9729,-698.6521 254.878,-702.5675 254.7857,-706.3775"/>
<polygon fill="#0a879a" stroke="#0a879a" stroke-width="1.5" points="258.5684,-694.745 255.3117,-684.6632 251.5705,-694.5755 258.5684,-694.745"/>
</g>
<!-- DS&#45;0|uk|8|43876|2&#45;&gt;DNSKEY&#45;3|.|8|20826 -->
<g id="RRSIG&#45;DS&#45;0|uk|8|43876|2|DNSKEY&#45;3|.|8|20826|0a879a|solid" class="edge">
<title>DS&#45;0|uk|8|43876|2&#45;&gt;DNSKEY&#45;3|.|8|20826</title>
<path fill="none" stroke="#0a879a" stroke-width="1.5" d="M257.6794,-616.2235C257.5159,-620.119 257.3496,-624.0832 257.1883,-627.9275"/>
<polygon fill="#0a879a" stroke="#0a879a" stroke-width="1.5" points="261.1775,-616.3399 258.0999,-606.2019 254.1837,-616.0463 261.1775,-616.3399"/>
</g>
</g>
</svg>
