<?xml version="1.0" encoding="UTF-8" standalone="no"?>
<!DOCTYPE svg PUBLIC "-//W3C//DTD SVG 1.1//EN"
 "http://www.w3.org/Graphics/SVG/1.1/DTD/svg11.dtd">
<!-- Generated by graphviz version 2.40.1 (20161225.0304)
 -->
<!-- Pages: 1 -->
<svg width="394pt" height="959pt"
 viewBox="0.00 0.00 394.00 958.66" xmlns="http://www.w3.org/2000/svg" xmlns:xlink="http://www.w3.org/1999/xlink">
<g id="graph0" class="graph" transform="scale(1 1) rotate(0) translate(4 954.6641)">
<polygon fill="#ffffff" stroke="transparent" points="-4,4 -4,-954.6641 390,-954.6641 390,4 -4,4"/>
<g id="cluster_internetsociety.org_top" class="cluster">
<title>cluster_internetsociety.org</title>
<polygon fill="none" stroke="#000000" stroke-width=".5" points="8,-8 8,-314.3371 378,-314.3371 378,-8 8,-8"/>
<text text-anchor="start" x="20.5" y="-36.4" font-family="Times,serif" font-size="12.00" fill="#000000">internetsociety.org</text>
<text text-anchor="start" x="20.5" y="-19" font-family="Times,serif" font-size="10.00" fill="#000000">(2022&#45;08&#45;08 11:18:55 UTC)</text>
</g>
<g id="cluster_._top" class="cluster">
<title>cluster_.</title>
<polygon fill="none" stroke="#000000" stroke-width=".5" points="156,-647.5006 156,-942.6641 320,-942.6641 320,-647.5006 156,-647.5006"/>
<text text-anchor="start" x="168.5" y="-675.9006" font-family="Times,serif" font-size="12.00" fill="#000000">.</text>
<text text-anchor="start" x="168.5" y="-658.5006" font-family="Times,serif" font-size="10.00" fill="#000000">(2022&#45;08&#45;08 07:45:02 UTC)</text>
</g>
<g id="cluster_org_top" class="cluster">
<title>cluster_org</title>
<polygon fill="none" stroke="#000000" stroke-width=".5" points="79,-337.3371 79,-624.5006 357,-624.5006 357,-337.3371 79,-337.3371"/>
<text text-anchor="start" x="91.5" y="-365.7371" font-family="Times,serif" font-size="12.00" fill="#000000">org</text>
<text text-anchor="start" x="91.5" y="-348.3371" font-family="Times,serif" font-size="10.00" fill="#000000">(2022&#45;08&#45;08 11:07:13 UTC)</text>
</g>
<!-- cluster_internetsociety.org_top -->
<!-- cluster_org_bottom -->
<!-- cluster_internetsociety.org_top&#45;&gt;cluster_org_bottom -->
<g id="del&#45;internetsociety.org|org" class="edge">
<title>cluster_internetsociety.org_top&#45;&gt;cluster_org_bottom</title>
<path fill="none" stroke="#0a879a" stroke-width="5" d="M106.5946,-316.0034C104.3434,-322.2351 101.7228,-330.1223 100,-337.3371"/>
<polygon fill="#0a879a" stroke="#0a879a" stroke-width="5" points="107.4719,-325.2509 107.2909,-314.3371 99.3983,-321.8771 107.4719,-325.2509"/>
</g>
<!-- cluster_internetsociety.org_bottom -->
<!-- RRset&#45;10|www.internetsociety.org|AAAA -->
<g id="RRset&#45;10|www.internetsociety.org|AAAA" class="node">
<title>RRset&#45;10|www.internetsociety.org|AAAA</title>
<path fill="#ffffff" stroke="#0a879a" stroke-width="1.5" d="M184,-123.6C184,-123.6 28,-123.6 28,-123.6 22,-123.6 16,-117.6 16,-111.6 16,-111.6 16,-99.6 16,-99.6 16,-93.6 22,-87.6 28,-87.6 28,-87.6 184,-87.6 184,-87.6 190,-87.6 196,-93.6 196,-99.6 196,-99.6 196,-111.6 196,-111.6 196,-117.6 190,-123.6 184,-123.6"/>
<text text-anchor="start" x="24" y="-102.5" font-family="Helvetica,sans-Serif" font-size="12.00" fill="#000000">www.internetsociety.org/AAAA</text>
</g>
<!-- cluster_internetsociety.org_bottom&#45;&gt;RRset&#45;10|www.internetsociety.org|AAAA -->
<!-- RRset&#45;11|www.internetsociety.org|A -->
<g id="RRset&#45;11|www.internetsociety.org|A" class="node">
<title>RRset&#45;11|www.internetsociety.org|A</title>
<path fill="#ffffff" stroke="#0a879a" stroke-width="1.5" d="M357.5,-123.6C357.5,-123.6 226.5,-123.6 226.5,-123.6 220.5,-123.6 214.5,-117.6 214.5,-111.6 214.5,-111.6 214.5,-99.6 214.5,-99.6 214.5,-93.6 220.5,-87.6 226.5,-87.6 226.5,-87.6 357.5,-87.6 357.5,-87.6 363.5,-87.6 369.5,-93.6 369.5,-99.6 369.5,-99.6 369.5,-111.6 369.5,-111.6 369.5,-117.6 363.5,-123.6 357.5,-123.6"/>
<text text-anchor="start" x="222.5" y="-102.5" font-family="Helvetica,sans-Serif" font-size="12.00" fill="#000000">www.internetsociety.org/A</text>
</g>
<!-- cluster_internetsociety.org_bottom&#45;&gt;RRset&#45;11|www.internetsociety.org|A -->
<!-- DNSKEY&#45;0|internetsociety.org|13|34505 -->
<g id="DNSKEY&#45;0|internetsociety.org|13|34505" class="node">
<title>DNSKEY&#45;0|internetsociety.org|13|34505</title>
<ellipse fill="#ffffff" stroke="#0a879a" stroke-width="1.5" cx="127" cy="-173.8843" rx="64.1938" ry="28.0702"/>
<text text-anchor="start" x="101" y="-181.2843" font-family="Helvetica,sans-Serif" font-size="12.00" fill="#000000">DNSKEY</text>
<text text-anchor="start" x="89.5" y="-170.8843" font-family="Times,serif" font-size="10.00" fill="#000000">alg=13, id=34505</text>
<text text-anchor="start" x="110" y="-160.8843" font-family="Times,serif" font-size="10.00" fill="#000000">512 bits</text>
</g>
<!-- DNSKEY&#45;1|internetsociety.org|13|2371 -->
<g id="DNSKEY&#45;1|internetsociety.org|13|2371" class="node">
<title>DNSKEY&#45;1|internetsociety.org|13|2371</title>
<ellipse fill="#d3d3d3" stroke="#0a879a" stroke-width="1.5" cx="127" cy="-252.4528" rx="60.623" ry="28.0702"/>
<text text-anchor="start" x="101" y="-259.8528" font-family="Helvetica,sans-Serif" font-size="12.00" fill="#000000">DNSKEY</text>
<text text-anchor="start" x="92" y="-249.4528" font-family="Times,serif" font-size="10.00" fill="#000000">alg=13, id=2371</text>
<text text-anchor="start" x="110" y="-239.4528" font-family="Times,serif" font-size="10.00" fill="#000000">512 bits</text>
</g>
<!-- DNSKEY&#45;0|internetsociety.org|13|34505&#45;&gt;DNSKEY&#45;1|internetsociety.org|13|2371 -->
<g id="RRSIG&#45;DNSKEY&#45;0|internetsociety.org|13|34505|DNSKEY&#45;1|internetsociety.org|13|2371|0a879a|solid" class="edge">
<title>DNSKEY&#45;0|internetsociety.org|13|34505&#45;&gt;DNSKEY&#45;1|internetsociety.org|13|2371</title>
<path fill="none" stroke="#0a879a" stroke-width="1.5" d="M127,-212.4983C127,-216.4185 127,-220.3476 127,-224.1294"/>
<polygon fill="#0a879a" stroke="#0a879a" stroke-width="1.5" points="130.5001,-212.2493 127,-202.2493 123.5001,-212.2494 130.5001,-212.2493"/>
</g>
<!-- DNSKEY&#45;1|internetsociety.org|13|2371&#45;&gt;cluster_internetsociety.org_top -->
<!-- DNSKEY&#45;1|internetsociety.org|13|2371&#45;&gt;DNSKEY&#45;1|internetsociety.org|13|2371 -->
<g id="RRSIG&#45;DNSKEY&#45;1|internetsociety.org|13|2371|DNSKEY&#45;1|internetsociety.org|13|2371|0a879a|solid" class="edge">
<title>DNSKEY&#45;1|internetsociety.org|13|2371&#45;&gt;DNSKEY&#45;1|internetsociety.org|13|2371</title>
<path fill="none" stroke="#0a879a" stroke-width="1.5" d="M194.3958,-244.4041C201.3578,-245.9851 205.8112,-248.668 205.8112,-252.4528 205.8112,-257.8356 196.8032,-260.9896 184.382,-261.9148"/>
<polygon fill="#0a879a" stroke="#0a879a" stroke-width="1.5" points="194.773,-240.9228 184.382,-242.9908 193.7947,-247.8541 194.773,-240.9228"/>
</g>
<!-- DS&#45;1|internetsociety.org|13|2371|2 -->
<g id="DS&#45;1|internetsociety.org|13|2371|2" class="node">
<title>DS&#45;1|internetsociety.org|13|2371|2</title>
<ellipse fill="#ffffff" stroke="#0a879a" stroke-width="1.5" cx="157" cy="-412.5503" rx="48.1667" ry="21.4286"/>
<text text-anchor="start" x="148" y="-414.9503" font-family="Helvetica,sans-Serif" font-size="12.00" fill="#000000">DS</text>
<text text-anchor="start" x="131" y="-404.5503" font-family="Times,serif" font-size="10.00" fill="#000000">digest alg=2</text>
</g>
<!-- DNSKEY&#45;1|internetsociety.org|13|2371&#45;&gt;DS&#45;1|internetsociety.org|13|2371|2 -->
<g id="digest&#45;DNSKEY&#45;1|internetsociety.org|13|2371|DS&#45;1|internetsociety.org|13|2371|2|0a879a|solid" class="edge">
<title>DNSKEY&#45;1|internetsociety.org|13|2371&#45;&gt;DS&#45;1|internetsociety.org|13|2371|2</title>
<path fill="none" stroke="#0a879a" stroke-width="1.5" d="M134.1998,-290.8751C140.0938,-322.3287 148.2138,-365.6622 153.0046,-391.2285"/>
<polygon fill="#0a879a" stroke="#0a879a" stroke-width="1.5" points="137.5763,-289.8908 132.2943,-280.7065 130.6961,-291.1801 137.5763,-289.8908"/>
</g>
<!-- RRset&#45;10|www.internetsociety.org|AAAA&#45;&gt;DNSKEY&#45;0|internetsociety.org|13|34505 -->
<g id="RRSIG&#45;RRset&#45;10|www.internetsociety.org|AAAA|DNSKEY&#45;0|internetsociety.org|13|34505|0a879a|solid" class="edge">
<title>RRset&#45;10|www.internetsociety.org|AAAA&#45;&gt;DNSKEY&#45;0|internetsociety.org|13|34505</title>
<path fill="none" stroke="#0a879a" stroke-width="1.5" d="M114.5932,-133.5418C115.8332,-137.5739 117.1099,-141.7253 118.351,-145.7609"/>
<polygon fill="#0a879a" stroke="#0a879a" stroke-width="1.5" points="117.9126,-132.4283 111.6276,-123.8989 111.2218,-134.486 117.9126,-132.4283"/>
</g>
<!-- RRset&#45;11|www.internetsociety.org|A&#45;&gt;DNSKEY&#45;0|internetsociety.org|13|34505 -->
<g id="RRSIG&#45;RRset&#45;11|www.internetsociety.org|A|DNSKEY&#45;0|internetsociety.org|13|34505|0a879a|solid" class="edge">
<title>RRset&#45;11|www.internetsociety.org|A&#45;&gt;DNSKEY&#45;0|internetsociety.org|13|34505</title>
<path fill="none" stroke="#0a879a" stroke-width="1.5" d="M238.8371,-127.6012C217.9307,-136.2531 194.1346,-146.101 173.8824,-154.4823"/>
<polygon fill="#0a879a" stroke="#0a879a" stroke-width="1.5" points="240.3146,-130.7776 248.2162,-123.7197 237.6378,-124.3096 240.3146,-130.7776"/>
</g>
<!-- cluster_._top -->
<!-- cluster_._bottom -->
<!-- DNSKEY&#45;5|.|8|20826 -->
<g id="DNSKEY&#45;5|.|8|20826" class="node">
<title>DNSKEY&#45;5|.|8|20826</title>
<ellipse fill="#ffffff" stroke="#0a879a" stroke-width="1.5" cx="231" cy="-794.2113" rx="60.623" ry="28.0702"/>
<text text-anchor="start" x="205" y="-801.6113" font-family="Helvetica,sans-Serif" font-size="12.00" fill="#000000">DNSKEY</text>
<text text-anchor="start" x="196" y="-791.2113" font-family="Times,serif" font-size="10.00" fill="#000000">alg=8, id=20826</text>
<text text-anchor="start" x="211.5" y="-781.2113" font-family="Times,serif" font-size="10.00" fill="#000000">2048 bits</text>
</g>
<!-- DNSKEY&#45;6|.|8|20326 -->
<g id="DNSKEY&#45;6|.|8|20326" class="node">
<title>DNSKEY&#45;6|.|8|20326</title>
<ellipse fill="#d3d3d3" stroke="#0a879a" stroke-width="1.5" cx="229" cy="-876.7798" rx="60.6345" ry="28.0965"/>
<ellipse fill="none" stroke="#0a879a" stroke-width="1.5" cx="229" cy="-876.7798" rx="64.6229" ry="32.07"/>
<text text-anchor="start" x="203" y="-884.1798" font-family="Helvetica,sans-Serif" font-size="12.00" fill="#000000">DNSKEY</text>
<text text-anchor="start" x="194" y="-873.7798" font-family="Times,serif" font-size="10.00" fill="#000000">alg=8, id=20326</text>
<text text-anchor="start" x="209.5" y="-863.7798" font-family="Times,serif" font-size="10.00" fill="#000000">2048 bits</text>
</g>
<!-- DNSKEY&#45;5|.|8|20826&#45;&gt;DNSKEY&#45;6|.|8|20326 -->
<g id="RRSIG&#45;DNSKEY&#45;5|.|8|20826|DNSKEY&#45;6|.|8|20326|0a879a|solid" class="edge">
<title>DNSKEY&#45;5|.|8|20826&#45;&gt;DNSKEY&#45;6|.|8|20326</title>
<path fill="none" stroke="#0a879a" stroke-width="1.5" d="M230.0669,-832.7329C229.9729,-836.6156 229.878,-840.531 229.7857,-844.3409"/>
<polygon fill="#0a879a" stroke="#0a879a" stroke-width="1.5" points="233.5684,-832.7085 230.3117,-822.6267 226.5705,-832.5389 233.5684,-832.7085"/>
</g>
<!-- DNSKEY&#45;6|.|8|20326&#45;&gt;cluster_._top -->
<!-- DNSKEY&#45;6|.|8|20326&#45;&gt;DNSKEY&#45;6|.|8|20326 -->
<g id="RRSIG&#45;DNSKEY&#45;6|.|8|20326|DNSKEY&#45;6|.|8|20326|0a879a|solid" class="edge">
<title>DNSKEY&#45;6|.|8|20326&#45;&gt;DNSKEY&#45;6|.|8|20326</title>
<path fill="none" stroke="#0a879a" stroke-width="1.5" d="M300.6332,-868.3098C307.4782,-870.0343 311.8112,-872.8577 311.8112,-876.7798 311.8112,-882.3579 303.0469,-885.7135 290.7563,-886.8466"/>
<polygon fill="#0a879a" stroke="#0a879a" stroke-width="1.5" points="301.1867,-864.8539 290.7563,-866.713 300.0695,-871.7642 301.1867,-864.8539"/>
</g>
<!-- DS&#45;0|org|8|26974|2 -->
<g id="DS&#45;0|org|8|26974|2" class="node">
<title>DS&#45;0|org|8|26974|2</title>
<ellipse fill="#ffffff" stroke="#0a879a" stroke-width="1.5" cx="234" cy="-722.7138" rx="48.1667" ry="21.4286"/>
<text text-anchor="start" x="225" y="-725.1138" font-family="Helvetica,sans-Serif" font-size="12.00" fill="#000000">DS</text>
<text text-anchor="start" x="208" y="-714.7138" font-family="Times,serif" font-size="10.00" fill="#000000">digest alg=2</text>
</g>
<!-- DS&#45;0|org|8|26974|2&#45;&gt;DNSKEY&#45;5|.|8|20826 -->
<g id="RRSIG&#45;DS&#45;0|org|8|26974|2|DNSKEY&#45;5|.|8|20826|0a879a|solid" class="edge">
<title>DS&#45;0|org|8|26974|2&#45;&gt;DNSKEY&#45;5|.|8|20826</title>
<path fill="none" stroke="#0a879a" stroke-width="1.5" d="M232.6794,-754.187C232.5159,-758.0825 232.3496,-762.0467 232.1883,-765.891"/>
<polygon fill="#0a879a" stroke="#0a879a" stroke-width="1.5" points="236.1775,-754.3034 233.0999,-744.1654 229.1837,-754.0098 236.1775,-754.3034"/>
</g>
<!-- cluster_org_top -->
<!-- cluster_org_top&#45;&gt;cluster_._bottom -->
<g id="del&#45;org|." class="edge">
<title>cluster_org_top&#45;&gt;cluster_._bottom</title>
<path fill="none" stroke="#0a879a" stroke-width="5" d="M186.1086,-625.5199C182.9463,-631.7738 179.2472,-639.8887 177,-647.5006"/>
<polygon fill="#0a879a" stroke="#0a879a" stroke-width="5" points="183.688,-634.9 187.0047,-624.5006 177.1161,-629.1227 183.688,-634.9"/>
</g>
<!-- DNSKEY&#45;2|org|8|26974 -->
<g id="DNSKEY&#45;2|org|8|26974" class="node">
<title>DNSKEY&#45;2|org|8|26974</title>
<ellipse fill="#d3d3d3" stroke="#0a879a" stroke-width="1.5" cx="209" cy="-562.6163" rx="60.623" ry="28.0702"/>
<text text-anchor="start" x="183" y="-570.0163" font-family="Helvetica,sans-Serif" font-size="12.00" fill="#000000">DNSKEY</text>
<text text-anchor="start" x="174" y="-559.6163" font-family="Times,serif" font-size="10.00" fill="#000000">alg=8, id=26974</text>
<text text-anchor="start" x="189.5" y="-549.6163" font-family="Times,serif" font-size="10.00" fill="#000000">2048 bits</text>
</g>
<!-- DNSKEY&#45;2|org|8|26974&#45;&gt;DS&#45;0|org|8|26974|2 -->
<g id="digest&#45;DNSKEY&#45;2|org|8|26974|DS&#45;0|org|8|26974|2|0a879a|solid" class="edge">
<title>DNSKEY&#45;2|org|8|26974&#45;&gt;DS&#45;0|org|8|26974|2</title>
<path fill="none" stroke="#0a879a" stroke-width="1.5" d="M214.9998,-601.0386C219.9115,-632.4922 226.6782,-675.8257 230.6705,-701.392"/>
<polygon fill="#0a879a" stroke="#0a879a" stroke-width="1.5" points="218.413,-600.2102 213.412,-590.87 211.4968,-601.2903 218.413,-600.2102"/>
</g>
<!-- DNSKEY&#45;2|org|8|26974&#45;&gt;cluster_org_top -->
<!-- DNSKEY&#45;2|org|8|26974&#45;&gt;DNSKEY&#45;2|org|8|26974 -->
<g id="RRSIG&#45;DNSKEY&#45;2|org|8|26974|DNSKEY&#45;2|org|8|26974|0a879a|solid" class="edge">
<title>DNSKEY&#45;2|org|8|26974&#45;&gt;DNSKEY&#45;2|org|8|26974</title>
<path fill="none" stroke="#0a879a" stroke-width="1.5" d="M276.3958,-554.5676C283.3578,-556.1486 287.8112,-558.8315 287.8112,-562.6163 287.8112,-567.9991 278.8032,-571.1531 266.382,-572.0783"/>
<polygon fill="#0a879a" stroke="#0a879a" stroke-width="1.5" points="276.773,-551.0863 266.382,-553.1543 275.7947,-558.0176 276.773,-551.0863"/>
</g>
<!-- DNSKEY&#45;3|org|8|52626 -->
<g id="DNSKEY&#45;3|org|8|52626" class="node">
<title>DNSKEY&#45;3|org|8|52626</title>
<ellipse fill="#ffffff" stroke="#0a879a" stroke-width="1.5" cx="288" cy="-484.0478" rx="60.623" ry="28.0702"/>
<text text-anchor="start" x="262" y="-491.4478" font-family="Helvetica,sans-Serif" font-size="12.00" fill="#000000">DNSKEY</text>
<text text-anchor="start" x="253" y="-481.0478" font-family="Times,serif" font-size="10.00" fill="#000000">alg=8, id=52626</text>
<text text-anchor="start" x="268.5" y="-471.0478" font-family="Times,serif" font-size="10.00" fill="#000000">1024 bits</text>
</g>
<!-- DNSKEY&#45;3|org|8|52626&#45;&gt;DNSKEY&#45;2|org|8|26974 -->
<g id="RRSIG&#45;DNSKEY&#45;3|org|8|52626|DNSKEY&#45;2|org|8|26974|0a879a|solid" class="edge">
<title>DNSKEY&#45;3|org|8|52626&#45;&gt;DNSKEY&#45;2|org|8|26974</title>
<path fill="none" stroke="#0a879a" stroke-width="1.5" d="M254.9993,-516.8682C248.298,-523.533 241.34,-530.4529 234.9257,-536.8322"/>
<polygon fill="#0a879a" stroke="#0a879a" stroke-width="1.5" points="257.5101,-519.3074 262.1324,-509.774 252.5739,-514.3441 257.5101,-519.3074"/>
</g>
<!-- DNSKEY&#45;4|org|8|29511 -->
<g id="DNSKEY&#45;4|org|8|29511" class="node">
<title>DNSKEY&#45;4|org|8|29511</title>
<ellipse fill="#ffffff" stroke="#0a879a" stroke-width="1.5" cx="148" cy="-484.0478" rx="60.623" ry="28.0702"/>
<text text-anchor="start" x="122" y="-491.4478" font-family="Helvetica,sans-Serif" font-size="12.00" fill="#000000">DNSKEY</text>
<text text-anchor="start" x="113" y="-481.0478" font-family="Times,serif" font-size="10.00" fill="#000000">alg=8, id=29511</text>
<text text-anchor="start" x="128.5" y="-471.0478" font-family="Times,serif" font-size="10.00" fill="#000000">1024 bits</text>
</g>
<!-- DNSKEY&#45;4|org|8|29511&#45;&gt;DNSKEY&#45;2|org|8|26974 -->
<g id="RRSIG&#45;DNSKEY&#45;4|org|8|29511|DNSKEY&#45;2|org|8|26974|0a879a|solid" class="edge">
<title>DNSKEY&#45;4|org|8|29511&#45;&gt;DNSKEY&#45;2|org|8|26974</title>
<path fill="none" stroke="#0a879a" stroke-width="1.5" d="M175.2459,-519.1407C179.5857,-524.7305 184.0145,-530.4347 188.1752,-535.7938"/>
<polygon fill="#0a879a" stroke="#0a879a" stroke-width="1.5" points="177.89,-516.839 168.9927,-511.0866 172.3608,-521.1319 177.89,-516.839"/>
</g>
<!-- DS&#45;1|internetsociety.org|13|2371|2&#45;&gt;DNSKEY&#45;4|org|8|29511 -->
<g id="RRSIG&#45;DS&#45;1|internetsociety.org|13|2371|2|DNSKEY&#45;4|org|8|29511|0a879a|solid" class="edge">
<title>DS&#45;1|internetsociety.org|13|2371|2&#45;&gt;DNSKEY&#45;4|org|8|29511</title>
<path fill="none" stroke="#0a879a" stroke-width="1.5" d="M153.0382,-444.0235C152.5478,-447.919 152.0488,-451.8832 151.5649,-455.7275"/>
<polygon fill="#0a879a" stroke="#0a879a" stroke-width="1.5" points="156.5233,-444.3607 154.2997,-434.0019 149.5781,-443.4864 156.5233,-444.3607"/>
</g>
</g>
</svg>
